{"title":"Run Baby Run 2012 DVDRip x264 AAC ESubs - ViZNU [P2PDL]","uid":8014946,"size":744496755,"categoryP":"video","categoryS":"movies","magnet":"?xt=urn:btih:545164231837441d11750f8c8e3aaa35f2e64748&amp;dn=Run+Baby+Run+2012+DVDRip+x264+AAC+ESubs+-+ViZNU+%5BP2PDL%5D&amp;tr=udp%3A%2F%2Ftracker.openbittorrent.com%3A80&amp;tr=udp%3A%2F%2Fopen.demonii.com%3A1337&amp;tr=udp%3A%2F%2Ftracker.coppersurfer.tk%3A6969&amp;tr=udp%3A%2F%2Fexodus.desync.com%3A6969","seeders":4,"leechers":0,"uploader":"ValidusVyto","files":-1,"time":1358087623,"description":"_________________________  Visit us at _________________________\n  &lt;a href=&quot;\nhttp://p2pdl.com&quot; rel=&quot;nofollow&quot; target=&quot;_NEW&quot;&gt;\nhttp://p2pdl.com&lt;/a&gt;  ____________________________ &lt;a href=&quot; http://p2pdl.com&quot; rel=&quot;nofollow&quot; target=&quot;_NEW&quot;&gt; http://p2pdl.com&lt;/a&gt;\n\n\nRun Baby Run 2012 DVDRip x264 AAC ESubs - ViZNU\n\n\t\t\t\t\nGenre: Comedy | Thriller \nThe film which has news media as the backdrop, traces the relationship between two people and their\nprofessional conflicts. \nDirector:  Joshiy Milan Jaleel\nStars: Mohanlal, Amala Paul and Biju Menon.\nRated: N/a &lt;a href=&quot;\nhttp://www.imdb.com/title/tt2357208/&quot; rel=&quot;nofollow&quot; target=&quot;_NEW&quot;&gt;\nhttp://www.imdb.com/title/tt2357208/&lt;/a&gt;\n\nGeneral\nMovie name                     : Run Baby Run 2012\nFormat                         : MPEG-4\nFormat profile                 : Base Media\nFile size                      : 697 MiB\nDuration                       : 2h 20mn\nOverall bit rate mode          : Variable\nOverall bit rate               : 696 Kbps\nSource                         : NTSC DVDR\n\nVideo\nID                             : 1\nFormat                         : AVC\nFormat/Info                    : Advanced Video Codec\nDuration                       : 2h 20mn\nBit rate                       : 653 Kbps\nWidth                          : 608 pixels\nHeight                         : 256 pixels\nDisplay aspect ratio           : 2.40:1\nFrame rate mode                : Constant\nFrame rate                     : 23.976 fps\nStream size                    : 654 MiB (94%)\nWriting library                : x264 core 129 r2230\n\nAudio\nID                             : 2\nFormat                         : AAC\nFormat/Info                    : Advanced Audio Codec\nFormat profile                 : HE-AACv2 / HE-AAC / LC\nDuration                       : 2h 20mn\nBit rate mode                  : Variable\nBit rate                       : 39.8 Kbps\nMaximum bit rate               : 49.4 Kbps\nChannel(s)                     : 2 channels / 1 channel / 1 channel\nChannel positions              : Front: L R / Front: C / Front: C\nSampling rate                  : 48.0 KHz / 48.0 KHz / 24.0 KHz\nStream size                    : 39.9 MiB (6%)\nLanguage                       : Malayalam\n\nSubtitle                       : Yes(English)\n\nScreens:\n &lt;a href=&quot;\nhttp://www.shotpix.com/images/40687223109508419328.png&quot; rel=&quot;nofollow&quot; target=&quot;_NEW&quot;&gt;\nhttp://www.shotpix.com/images/40687223109508419328.png&lt;/a&gt; &lt;a href=&quot;\nhttp://www.shotpix.com/images/23327682307990858161.png&quot; rel=&quot;nofollow&quot; target=&quot;_NEW&quot;&gt;\nhttp://www.shotpix.com/images/23327682307990858161.png&lt;/a&gt; &lt;a href=&quot;\nhttp://www.shotpix.com/images/95623719346389622453.png&quot; rel=&quot;nofollow&quot; target=&quot;_NEW&quot;&gt;\nhttp://www.shotpix.com/images/95623719346389622453.png&lt;/a&gt; &lt;a href=&quot;\nhttp://www.shotpix.com/images/33012566430513777867.png&quot; rel=&quot;nofollow&quot; target=&quot;_NEW&quot;&gt;\nhttp://www.shotpix.com/images/33012566430513777867.png&lt;/a&gt; &lt;a href=&quot;\nhttp://www.shotpix.com/images/60354537167329978093.png&quot; rel=&quot;nofollow&quot; target=&quot;_NEW&quot;&gt;\nhttp://www.shotpix.com/images/60354537167329978093.png&lt;/a&gt; &lt;a href=&quot;\nhttp://www.shotpix.com/images/64932467482940198514.jpg&quot; rel=&quot;nofollow&quot; target=&quot;_NEW&quot;&gt;\nhttp://www.shotpix.com/images/64932467482940198514.jpg&lt;/a&gt;\n\n\n----------------------------------------------------------------------------------------------------\n\n\nRecommend to you to use latest version of VLC player. Install K-Lite Codec Pack or shark007 codecs\nin case of any kind of problem in playback (For non-VLC Media Player users). Alternatively, install\nCore AVC codecs, the fastest decoder that there is coupled with Community Center Codec Pack and play\non Windows Media Player Classic. Check sample to be sure.\nEnjoy!\n\nGreets to: Vitamin_X, a2zRG, srkfan, MgB, Stumpie1971, Sheychi, StyLishSaLH and, Masta staff members at\nExtraTorrent, TPB,KAT, 1337x, PublicHD, Ahashare, BTScene, SilverTorrent, LimeTorrents, TorrentMafia,\nP2PDL, and all others.\n\nEncoder Notes: Looking For Early Access To Anything You Can Provide DVDScr, R5, DVDR, BluRay, Direct\nAudio, Early Music Releases, Seedboxes, Dedicated Servers anything u can provide, Advance / Promo CDs/\nDVDs. If You Got anything to offer contact me at &quot;&lt;a class=&quot;__cf_email__&quot; href=&quot;/cdn-cgi/l/email-protection&quot; data-cfemail=&quot;02727065426a77716a2c616d6f&quot;&gt;[email&amp;#160;protected]&lt;/a&gt;&lt;script cf-hash='f9e31' type=&quot;text/javascript&quot;&gt;\n/* &lt;![CDATA[ */!function(){try{var t=&quot;currentScript&quot;in document?document.currentScript:function(){for(var t=document.getElementsByTagName(&quot;script&quot;),e=t.length;e--;)if(t[e].getAttribute(&quot;cf-hash&quot;))return t[e]}();if(t&amp;&amp;t.previousSibling){var e,r,n,i,c=t.previousSibling,a=c.getAttribute(&quot;data-cfemail&quot;);if(a){for(e=&quot;&quot;,r=parseInt(a.substr(0,2),16),n=2;a.length-n;n+=2)i=parseInt(a.substr(n,2),16)^r,e+=String.fromCharCode(i);e=document.createTextNode(e),c.parentNode.replaceChild(e,c)}}}catch(u){}}();/* ]]&gt; */&lt;/script&gt;&quot;.\n\nFacebook Fan Page: www . facebook . com / p2pdl","torrent":{"xt":"urn:btih:545164231837441d11750f8c8e3aaa35f2e64748","amp;dn":"Run+Baby+Run+2012+DVDRip+x264+AAC+ESubs+-+ViZNU+%5BP2PDL%5D","amp;tr":["udp%3A%2F%2Ftracker.openbittorrent.com%3A80","udp%3A%2F%2Fopen.demonii.com%3A1337","udp%3A%2F%2Ftracker.coppersurfer.tk%3A6969","udp%3A%2F%2Fexodus.desync.com%3A6969"],"infoHash":"545164231837441d11750f8c8e3aaa35f2e64748","infoHashBuffer":{"type":"Buffer","data":[84,81,100,35,24,55,68,29,17,117,15,140,142,58,170,53,242,230,71,72]},"announce":[],"urlList":[]}}